<?xml version="1.0" standalone="no"?>
<!DOCTYPE svg PUBLIC "-//W3C//DTD SVG 20010904//EN"
 "http://www.w3.org/TR/2001/REC-SVG-20010904/DTD/svg10.dtd">
<svg version="1.0" xmlns="http://www.w3.org/2000/svg"
 width="1263.000000pt" height="1263.000000pt" viewBox="0 0 1263.000000 1263.000000"
 preserveAspectRatio="xMidYMid meet">
<metadata>
Created by potrace 1.11, written by Peter Selinger 2001-2013
</metadata>
<g transform="translate(0.000000,1263.000000) scale(0.100000,-0.100000)"
fill="#000000" stroke="none">
<path d="M11036 12336 c-14 -52 -34 -157 -40 -211 -2 -16 -11 -55 -21 -85 -56
-175 -94 -283 -107 -302 -19 -31 -30 -60 -19 -53 5 3 0 -17 -12 -44 -11 -28
-25 -47 -30 -44 -6 4 -7 1 -2 -6 7 -13 -5 -48 -51 -146 -12 -27 -25 -62 -28
-77 -4 -15 -13 -33 -21 -42 -8 -8 -15 -22 -15 -30 0 -9 -4 -16 -10 -16 -5 0
-10 -9 -10 -21 0 -11 -4 -17 -10 -14 -5 3 -13 -7 -16 -22 -8 -31 -44 -105 -55
-113 -4 -3 -17 -26 -28 -52 -10 -25 -24 -49 -30 -52 -6 -4 -11 -14 -11 -22 0
-9 -13 -35 -30 -59 -16 -24 -30 -48 -30 -54 0 -6 -4 -11 -9 -11 -5 0 -20 -25
-35 -55 -14 -30 -30 -55 -34 -55 -5 0 -20 -21 -33 -47 -13 -27 -27 -49 -31
-51 -5 -2 -8 -9 -8 -16 0 -14 -40 -54 -55 -56 -5 0 -11 -8 -11 -18 -1 -9 -2
-22 -3 -28 -1 -6 -21 -36 -46 -68 -24 -31 -47 -66 -50 -77 -4 -10 -11 -17 -16
-14 -5 4 -9 1 -9 -5 0 -14 -49 -82 -68 -93 -7 -5 -9 -13 -6 -19 5 -8 1 -9 -10
-5 -9 4 -15 3 -11 -2 10 -18 -6 -39 -28 -35 -12 2 -16 2 -10 -2 16 -7 -5 -49
-42 -83 -14 -13 -25 -29 -25 -35 0 -7 -10 -22 -22 -33 -13 -11 -32 -33 -43
-48 -31 -43 -46 -56 -57 -49 -7 4 -8 2 -4 -4 4 -6 -2 -20 -14 -32 -11 -11 -17
-20 -14 -20 3 0 -8 -13 -25 -29 -17 -16 -31 -34 -31 -40 0 -9 -5 -9 -21 0 -19
10 -20 8 -14 -10 4 -15 -1 -29 -19 -49 -14 -15 -36 -39 -50 -55 -14 -15 -29
-27 -33 -26 -4 0 -10 -6 -13 -14 -3 -9 -22 -29 -44 -46 -21 -17 -34 -31 -29
-31 6 0 -7 -18 -29 -40 -22 -22 -42 -40 -45 -40 -2 0 -16 -13 -30 -30 -13 -16
-31 -30 -39 -30 -8 0 -14 -7 -14 -15 0 -8 -7 -15 -15 -15 -8 0 -15 -6 -16 -12
0 -11 -80 -82 -126 -113 -19 -13 -63 -50 -116 -97 -23 -21 -47 -38 -53 -38 -5
0 -23 -13 -39 -30 -16 -16 -30 -28 -32 -26 -2 2 -21 -13 -41 -33 -38 -38 -129
-101 -144 -101 -5 0 -7 -4 -4 -9 3 -4 -6 -13 -19 -19 -14 -7 -25 -16 -25 -22
0 -6 -4 -9 -10 -5 -5 3 -17 -2 -27 -12 -25 -25 -121 -93 -131 -93 -5 0 -21
-13 -37 -30 -15 -16 -32 -27 -37 -24 -4 3 -8 1 -8 -3 0 -8 -102 -73 -115 -73
-3 0 -3 5 1 12 4 7 3 8 -4 4 -6 -4 -8 -14 -5 -23 4 -11 3 -14 -5 -9 -7 4 -12
2 -12 -3 0 -6 -7 -11 -15 -11 -9 0 -18 -7 -21 -15 -4 -8 -12 -15 -20 -15 -8 0
-14 -4 -14 -9 0 -4 -52 -39 -115 -76 -63 -38 -120 -74 -126 -82 -6 -7 -17 -13
-23 -13 -6 0 -35 -16 -64 -35 -28 -20 -52 -32 -52 -28 0 5 -5 0 -11 -9 -5 -10
-16 -18 -24 -18 -8 0 -44 -19 -80 -42 -106 -70 -128 -83 -165 -98 -19 -8 -41
-20 -48 -27 -7 -7 -20 -13 -28 -13 -9 0 -30 -10 -47 -23 -18 -13 -51 -32 -74
-43 -24 -10 -43 -22 -43 -26 0 -5 -8 -8 -19 -8 -10 0 -30 -9 -44 -20 -14 -11
-32 -20 -40 -20 -9 0 -17 -4 -19 -8 -4 -10 -130 -72 -146 -72 -7 0 -12 -4 -12
-8 0 -11 -66 -42 -89 -42 -10 0 -21 -6 -24 -12 -2 -7 -26 -19 -53 -27 -27 -8
-51 -17 -54 -21 -9 -12 -183 -93 -415 -192 -38 -16 -83 -36 -100 -43 -16 -8
-57 -23 -91 -33 -33 -11 -69 -24 -80 -30 -10 -6 -41 -18 -69 -27 -72 -24 -79
-26 -85 -26 -3 0 -14 -6 -25 -13 -11 -7 -36 -17 -55 -21 -19 -4 -41 -11 -50
-16 -39 -22 -327 -120 -360 -123 -9 -1 -21 -5 -28 -9 -10 -7 -97 -36 -127 -43
-5 -1 -50 -14 -99 -28 -48 -14 -98 -26 -111 -26 -12 0 -28 -7 -35 -15 -7 -8
-25 -15 -40 -15 -15 0 -49 -7 -76 -16 -27 -8 -76 -22 -109 -30 -33 -8 -87 -21
-120 -29 -33 -8 -69 -17 -80 -20 -11 -3 -33 -8 -49 -11 -16 -2 -32 -7 -35 -9
-4 -2 -26 -6 -51 -10 -24 -4 -51 -10 -60 -14 -8 -4 -53 -15 -100 -24 -47 -9
-152 -30 -235 -47 -139 -28 -290 -54 -375 -66 -19 -3 -78 -11 -130 -19 -144
-22 -283 -36 -555 -55 -144 -10 -1752 -7 -1855 3 -250 26 -356 40 -360 46 -3
5 -34 11 -70 15 -36 3 -76 9 -90 12 -14 3 -43 9 -65 13 -22 4 -60 13 -85 20
-158 44 -306 77 -391 88 -55 7 -60 1 -72 -82 -14 -99 -20 -1113 -8 -1260 6
-71 14 -168 16 -215 8 -135 26 -265 48 -345 6 -22 10 -47 9 -55 -1 -8 5 -35
13 -60 19 -63 56 -208 62 -250 3 -19 9 -39 13 -45 8 -11 23 -68 25 -100 1 -11
3 -33 3 -49 1 -16 5 -26 9 -22 9 8 33 -69 33 -106 0 -15 4 -29 9 -32 4 -3 11
-19 14 -36 4 -16 7 -33 8 -38 3 -14 74 -28 164 -32 135 -7 724 -5 935 4 175 7
223 9 400 20 41 2 176 14 300 26 124 11 250 23 280 26 30 3 77 9 103 14 26 6
70 10 97 10 28 0 50 5 50 10 0 6 32 10 76 10 41 0 83 4 92 9 9 5 40 12 67 15
28 3 82 11 120 16 95 15 119 17 161 19 19 0 33 5 30 10 -3 5 20 12 52 16 31 5
64 9 72 10 8 1 56 10 105 20 132 26 138 27 163 28 12 1 22 5 22 9 0 4 8 7 18
7 23 0 217 44 265 60 21 7 47 11 58 8 10 -3 17 -2 14 3 -3 4 10 10 28 13 17 2
59 12 92 22 61 18 74 20 135 31 19 4 37 10 40 15 3 4 21 10 40 13 45 6 57 9
105 26 22 8 48 13 58 11 9 -1 17 3 17 10 0 6 8 9 20 6 11 -3 20 -1 20 5 0 5 5
6 10 3 6 -3 16 -3 23 2 18 12 139 54 162 57 48 6 95 19 95 27 0 4 9 6 20 4 11
-2 18 0 15 4 -5 9 17 21 40 21 8 0 26 5 42 12 32 13 39 14 71 16 13 1 20 6 17
12 -3 5 0 7 8 4 8 -3 32 4 52 15 21 11 59 25 86 32 27 7 49 17 49 21 0 5 6 8
13 7 6 -2 29 5 49 13 20 9 47 18 60 20 13 2 29 9 36 16 7 6 26 12 42 12 17 0
33 7 39 18 6 9 11 13 11 7 0 -7 3 -7 8 0 4 6 39 21 77 34 70 23 106 38 200 82
28 12 52 23 55 24 42 10 90 30 90 37 0 5 10 6 23 2 12 -3 19 -3 14 2 -8 8 51
39 67 35 5 -1 12 3 16 8 3 6 17 12 30 14 13 2 26 9 28 15 2 6 10 8 19 5 10 -4
14 -2 10 3 -5 8 43 33 73 39 23 4 50 18 50 25 0 5 7 6 17 3 11 -4 14 -3 9 5
-4 7 -1 12 10 12 9 0 33 8 53 18 85 43 115 57 123 54 4 -1 8 2 8 7 0 5 20 15
45 22 25 7 45 16 45 20 0 5 123 71 140 75 31 7 91 37 85 42 -3 3 28 21 68 40
39 19 82 43 94 54 12 12 27 17 34 13 7 -5 10 -4 5 3 -3 6 8 15 28 22 19 6 46
20 60 31 15 11 31 17 38 13 7 -4 10 -3 5 1 -4 5 10 18 30 30 22 12 41 17 44
12 4 -5 12 -6 19 -2 9 6 9 9 -1 15 -8 6 10 19 57 42 74 35 86 43 112 71 9 9
21 17 28 17 6 0 19 9 28 19 10 11 24 17 31 15 7 -3 15 2 18 10 4 9 13 16 22
16 8 0 15 5 15 10 0 6 11 10 25 10 17 0 36 12 56 35 17 19 35 35 40 35 5 0 38
20 75 45 36 25 69 45 74 45 4 0 11 7 14 16 3 8 10 12 16 9 5 -3 10 -1 10 5 0
6 10 15 23 20 35 16 91 50 102 63 20 24 68 57 75 52 5 -3 11 3 14 13 3 10 21
26 38 37 18 10 44 29 57 42 13 12 28 20 34 16 5 -3 7 -1 3 5 -3 6 3 13 14 17
11 3 20 11 20 16 0 5 8 9 18 9 9 0 32 18 51 40 19 22 40 40 46 40 7 0 25 13
41 30 16 16 34 30 39 30 6 0 31 18 55 41 77 70 87 79 99 79 7 0 9 5 6 10 -3 6
-2 10 2 10 5 0 23 14 41 30 18 17 40 30 48 30 8 0 14 6 14 14 0 8 15 23 33 35
18 11 42 34 55 50 12 17 27 31 33 31 6 0 47 36 91 80 44 44 83 80 87 80 13 0
47 34 54 53 3 9 14 17 22 17 9 0 14 3 12 8 -2 4 4 15 15 25 10 9 18 14 19 10
0 -5 4 1 8 12 4 11 21 27 37 36 16 9 28 22 26 28 -1 6 14 21 33 32 19 12 35
26 35 32 0 5 26 36 58 67 75 74 202 211 202 219 0 4 13 18 30 33 16 14 26 28
23 32 -4 3 1 6 10 6 9 0 17 5 17 11 0 5 4 8 9 5 5 -3 8 2 7 11 0 9 8 22 19 27
11 6 20 16 20 21 0 13 78 114 88 114 14 1 37 29 37 45 0 8 20 34 45 57 25 23
45 48 45 56 0 7 4 13 9 13 5 0 13 10 17 23 4 12 16 34 28 48 11 14 32 40 46
59 14 18 30 38 37 45 6 6 28 38 49 71 20 32 41 61 46 62 4 2 8 8 8 14 0 6 8
18 18 27 9 9 30 40 46 70 16 29 37 62 47 72 11 11 19 24 19 30 0 6 19 41 43
78 23 36 47 75 54 86 6 11 16 19 21 18 5 -1 8 7 5 17 -3 11 -1 20 5 20 5 0 13
12 17 27 3 15 10 30 14 33 14 10 41 60 41 75 0 8 5 15 10 15 6 0 10 6 10 13 0
7 7 22 16 33 8 10 13 13 9 7 -3 -7 -1 -13 6 -13 6 0 9 8 6 20 -3 11 1 27 9 34
8 8 14 20 14 27 0 6 34 80 75 164 41 83 75 157 75 162 0 6 7 13 15 17 8 3 14
16 13 28 -1 13 5 37 14 53 14 26 53 126 118 300 10 28 28 82 40 120 13 39 26
74 31 79 5 6 9 20 9 33 0 13 4 31 9 41 8 17 25 72 56 187 9 33 20 67 24 75 4
8 8 33 9 55 1 22 6 51 11 65 13 36 28 104 41 190 7 41 16 88 21 104 5 15 7 31
5 35 -3 4 1 54 9 111 43 334 72 1117 45 1220 -18 71 -22 78 -46 83 -22 4 -26
-1 -38 -47z"/>
<path d="M5755 12065 c-5 -2 -73 -6 -150 -9 -77 -2 -171 -9 -210 -15 -38 -6
-86 -13 -105 -15 -81 -10 -303 -46 -345 -57 -25 -6 -54 -9 -65 -6 -11 3 -18 2
-15 -2 2 -5 -35 -16 -83 -26 -219 -45 -307 -66 -310 -75 -2 -6 -12 -10 -21
-10 -10 0 -64 -14 -122 -31 -57 -17 -112 -30 -121 -30 -10 0 -18 -4 -18 -10 0
-5 -9 -9 -20 -9 -11 0 -48 -11 -83 -25 -34 -14 -79 -28 -99 -32 -21 -3 -43
-12 -49 -19 -6 -8 -18 -14 -25 -14 -8 0 -80 -27 -161 -60 -82 -34 -156 -59
-166 -56 -9 2 -14 0 -11 -6 3 -5 -3 -12 -15 -15 -12 -3 -21 -9 -21 -14 0 -5
-6 -9 -13 -9 -8 0 -73 -29 -145 -65 -72 -36 -133 -65 -137 -65 -3 0 -15 -9
-27 -20 -12 -11 -29 -20 -39 -20 -9 0 -28 -9 -42 -20 -14 -11 -33 -20 -43 -20
-9 0 -14 -3 -11 -6 4 -4 -12 -17 -36 -29 -58 -30 -89 -48 -105 -62 -7 -7 -22
-13 -33 -13 -11 0 -18 -4 -14 -9 4 -8 -34 -28 -43 -22 -2 1 -11 -6 -20 -16 -9
-10 -37 -29 -62 -42 -25 -14 -47 -27 -50 -30 -6 -7 -90 -64 -105 -71 -11 -5
-198 -144 -222 -165 -6 -5 -41 -30 -77 -55 -36 -25 -65 -50 -66 -56 0 -6 -16
-19 -36 -30 -19 -10 -56 -38 -80 -62 -25 -24 -56 -47 -70 -52 -13 -5 -23 -13
-22 -18 5 -14 -109 -118 -123 -113 -8 2 -11 0 -6 -4 4 -5 -5 -17 -20 -27 -16
-10 -24 -18 -19 -18 5 0 -8 -13 -29 -30 -20 -16 -49 -45 -64 -64 -14 -20 -31
-35 -37 -36 -7 0 -27 -19 -47 -42 -87 -106 -178 -198 -189 -192 -4 3 -5 -2 -2
-10 3 -9 1 -16 -4 -16 -6 0 -19 -13 -28 -29 -10 -17 -21 -28 -26 -25 -4 3 -8
-1 -8 -8 0 -7 -14 -27 -30 -45 -17 -18 -30 -37 -30 -43 0 -6 -4 -9 -8 -6 -5 3
-15 -6 -22 -19 -7 -14 -19 -25 -27 -25 -7 0 -13 -5 -13 -12 0 -13 -45 -82 -74
-113 -10 -11 -25 -30 -33 -42 -8 -13 -20 -20 -25 -17 -6 4 -7 -2 -3 -16 5 -15
4 -20 -4 -16 -10 6 -15 -6 -12 -26 0 -5 -6 -8 -14 -8 -8 0 -15 -5 -15 -10 0
-6 -11 -22 -25 -35 -13 -14 -31 -41 -41 -60 -9 -19 -21 -32 -27 -28 -6 3 -7 1
-3 -5 7 -12 -52 -94 -63 -88 -3 2 -7 -7 -7 -21 -1 -13 -11 -34 -22 -46 -11
-12 -24 -34 -27 -49 -4 -16 -11 -26 -15 -23 -4 3 -17 -17 -29 -45 -12 -27 -26
-52 -31 -55 -6 -3 -10 -15 -10 -26 0 -13 -4 -18 -12 -13 -7 5 -9 2 -5 -9 3 -9
3 -17 -1 -19 -14 -6 -51 -64 -57 -91 -4 -15 -12 -24 -17 -21 -6 4 -8 1 -6 -7
3 -8 -7 -32 -22 -54 -15 -22 -30 -50 -34 -62 -4 -13 -11 -23 -14 -23 -4 0 -14
-20 -21 -46 -7 -25 -19 -50 -25 -57 -17 -17 -53 -97 -61 -134 -4 -18 -11 -33
-16 -33 -5 0 -9 -7 -9 -16 0 -8 -7 -22 -15 -30 -8 -8 -12 -21 -9 -29 4 -8 1
-15 -7 -15 -7 0 -9 -3 -6 -6 4 -4 0 -19 -8 -33 -7 -14 -22 -48 -31 -76 -10
-27 -21 -55 -26 -61 -5 -6 -5 -20 -1 -30 6 -17 5 -18 -12 -4 -12 9 -16 10 -11
2 4 -7 0 -35 -9 -62 -9 -27 -17 -58 -18 -69 0 -11 -5 -17 -9 -15 -4 3 -8 -2
-8 -11 0 -8 -9 -40 -19 -70 -11 -31 -21 -79 -22 -108 -3 -64 15 -97 53 -97 16
0 28 -4 28 -9 0 -5 8 -7 18 -4 11 2 43 -2 73 -10 30 -8 88 -20 129 -27 41 -7
82 -15 90 -17 14 -5 72 -12 112 -14 10 0 18 -3 18 -7 0 -4 10 -8 23 -8 18 -1
257 -41 362 -61 17 -3 47 -6 67 -6 20 -1 34 -5 32 -9 -3 -4 19 -8 48 -8 29 0
80 -5 113 -10 96 -17 166 -20 185 -10 10 5 21 24 25 42 13 63 28 99 38 85 5
-7 6 -4 2 10 -3 12 -2 30 3 40 5 10 14 29 20 43 5 14 28 66 50 115 22 50 45
107 52 128 7 21 18 41 26 44 8 3 12 9 9 13 -3 5 11 39 31 77 20 37 54 101 75
142 22 41 43 77 48 80 4 3 12 17 16 31 4 14 10 27 14 30 12 10 71 101 71 110
0 5 8 15 19 22 10 7 18 15 18 18 0 17 16 50 24 50 6 0 8 -4 5 -9 -3 -5 1 -12
9 -15 13 -5 14 -2 5 15 -11 19 6 58 47 109 97 120 143 185 143 200 0 7 3 10 6
7 4 -3 20 13 36 36 17 23 35 47 42 52 6 6 16 19 23 30 6 11 16 19 23 17 6 -1
9 1 6 6 -7 12 73 102 91 102 8 0 11 5 8 10 -3 6 -1 10 5 10 7 0 10 7 6 15 -3
8 -2 15 3 15 4 0 34 26 67 59 32 32 63 57 69 55 6 -3 11 5 12 18 1 12 8 25 16
30 8 4 37 30 65 58 28 27 56 50 62 50 12 0 40 24 40 35 0 11 44 44 58 45 6 0
12 5 12 10 0 6 8 10 18 10 13 0 14 2 4 9 -10 6 -5 14 20 29 18 12 42 27 53 34
11 7 22 15 25 18 17 18 96 70 106 70 7 0 16 5 20 12 4 7 3 8 -4 4 -7 -4 -12
-3 -12 2 0 6 8 13 18 17 23 9 156 98 160 108 2 4 10 7 18 7 8 0 17 7 20 15 3
8 16 17 27 21 12 3 37 17 55 31 18 14 32 19 32 12 0 -7 10 0 23 14 12 14 39
33 59 41 20 9 40 21 44 27 9 14 147 79 169 79 9 0 13 5 10 10 -3 6 1 10 9 10
9 0 16 5 16 10 0 6 6 10 14 10 7 0 53 20 102 44 49 24 105 50 124 59 19 8 58
25 85 37 44 20 132 52 218 80 15 5 27 6 27 2 0 -4 4 -2 8 4 6 10 203 81 242
88 8 1 22 5 30 9 27 12 245 67 340 86 30 6 102 21 160 32 58 12 125 21 150 21
25 1 47 4 50 9 8 12 294 29 499 29 207 0 578 -24 851 -54 83 -9 252 -45 340
-71 25 -8 70 -19 100 -24 30 -5 84 -19 119 -30 35 -12 72 -21 82 -21 11 0 19
-4 19 -8 0 -5 37 -19 83 -32 45 -13 87 -27 93 -32 7 -5 16 -8 20 -6 13 3 84
-25 84 -34 0 -4 7 -5 15 -2 8 4 15 1 15 -6 0 -6 5 -8 10 -5 6 3 10 2 10 -3 0
-5 16 -12 35 -15 19 -3 48 -15 64 -26 15 -11 31 -18 33 -15 3 3 23 -4 44 -15
22 -11 51 -25 67 -30 15 -6 27 -15 27 -21 0 -5 6 -10 14 -10 26 0 104 -40 110
-57 6 -14 9 -15 15 -4 6 9 11 10 15 2 4 -6 16 -11 27 -11 13 0 19 -6 17 -17
-2 -12 4 -18 17 -18 28 0 95 -27 90 -36 -3 -4 2 -12 10 -19 11 -9 15 -9 15 -1
0 11 7 8 87 -47 18 -12 37 -22 43 -22 6 0 8 -4 5 -10 -3 -5 3 -10 15 -10 12 0
28 -6 35 -12 35 -31 45 -38 59 -38 8 0 17 -4 20 -9 9 -14 56 0 67 20 5 11 16
19 24 19 8 0 15 5 15 11 0 6 7 9 14 6 9 -4 13 -1 10 7 -3 7 35 55 85 107 135
142 150 159 144 159 -2 0 3 7 12 16 9 9 23 27 32 40 8 13 19 21 24 18 5 -3 12
3 16 13 4 10 28 44 54 75 26 32 53 64 61 73 7 9 21 25 31 36 9 10 17 21 17 24
0 6 34 45 68 77 12 12 22 26 22 31 0 15 50 70 51 55 0 -7 6 1 12 17 15 39 66
116 89 135 10 8 27 33 38 54 18 37 19 40 3 67 -10 16 -25 29 -34 29 -10 0 -30
11 -46 24 -15 13 -38 26 -51 30 -12 4 -19 12 -16 18 4 7 2 8 -4 4 -11 -6 -100
37 -112 54 -6 8 -47 31 -100 56 -19 9 -44 24 -55 34 -11 10 -31 21 -44 25 -13
4 -39 16 -58 28 -26 15 -31 22 -21 29 9 7 8 8 -6 4 -13 -5 -92 29 -240 102
-122 60 -239 117 -261 127 -22 9 -58 26 -81 36 -22 10 -44 19 -48 19 -4 0 -22
6 -39 14 -18 8 -54 22 -82 31 -27 9 -54 20 -60 24 -5 4 -35 16 -65 25 -30 9
-64 21 -75 26 -39 17 -201 69 -265 85 -36 9 -74 19 -85 24 -41 17 -121 41
-150 45 -67 10 -159 27 -166 32 -24 15 -416 80 -534 89 -33 2 -78 7 -100 10
-22 3 -92 7 -155 10 -63 3 -198 10 -300 15 -175 9 -573 13 -595 5z"/>
<path d="M10625 11280 c-3 -5 -2 -10 4 -10 5 0 13 5 16 10 3 6 2 10 -4 10 -5
0 -13 -4 -16 -10z"/>
<path d="M2130 10674 c0 -8 5 -12 10 -9 6 4 8 11 5 16 -9 14 -15 11 -15 -7z"/>
<path d="M2085 10640 c3 -5 8 -10 11 -10 2 0 4 5 4 10 0 6 -5 10 -11 10 -5 0
-7 -4 -4 -10z"/>
<path d="M3826 10098 c3 -5 10 -6 15 -3 13 9 11 12 -6 12 -8 0 -12 -4 -9 -9z"/>
<path d="M3375 9829 c-4 -6 -5 -12 -2 -15 2 -3 7 2 10 11 7 17 1 20 -8 4z"/>
<path d="M2456 8971 c-3 -5 1 -11 9 -14 9 -4 12 -1 8 9 -6 16 -10 17 -17 5z"/>
<path d="M11555 8680 c-9 -15 -14 -110 -20 -370 -7 -370 -23 -531 -91 -960
-39 -250 -136 -642 -229 -930 -95 -293 -222 -623 -236 -614 -5 3 -6 -1 -3 -9
16 -43 -457 -980 -486 -962 -6 3 -8 0 -5 -7 6 -17 -120 -224 -134 -221 -6 2
-8 -3 -5 -10 4 -11 -230 -375 -276 -430 -6 -7 -29 -38 -52 -70 -24 -34 -44
-53 -48 -46 -5 7 -9 5 -13 -6 -4 -9 -3 -13 3 -10 22 14 8 -15 -17 -35 -16 -12
-21 -18 -14 -14 18 9 1 -15 -122 -171 -52 -66 -100 -119 -107 -117 -6 1 -9 -2
-5 -8 8 -12 -203 -266 -217 -262 -5 1 -7 -2 -4 -7 3 -5 -1 -14 -9 -21 -13 -11
-14 -10 -9 6 5 15 4 16 -4 4 -6 -8 -9 -17 -6 -22 6 -9 -32 -48 -40 -42 -3 2
-4 1 -1 -3 8 -10 -16 -33 -28 -26 -6 4 -7 1 -2 -6 9 -15 -73 -103 -88 -94 -6
3 -7 1 -3 -5 4 -6 -8 -27 -25 -47 -25 -27 -35 -32 -42 -23 -6 10 -7 9 -4 -3 7
-21 -190 -232 -206 -222 -5 3 -7 2 -4 -4 8 -13 -67 -86 -78 -76 -4 5 -5 3 -2
-3 8 -14 -36 -57 -48 -47 -4 5 -5 3 -2 -3 3 -6 -50 -66 -119 -133 -68 -68
-124 -121 -124 -118 0 2 -22 -18 -49 -45 -31 -32 -54 -47 -62 -42 -8 4 -10 3
-5 -4 10 -17 -65 -82 -89 -77 -11 3 -14 2 -7 -1 17 -8 15 -27 -3 -20 -8 3 -14
1 -12 -3 4 -14 -63 -72 -75 -65 -6 4 -8 3 -5 -3 9 -14 -61 -75 -75 -67 -6 4
-8 3 -5 -3 9 -15 -49 -67 -64 -58 -7 5 -10 4 -6 -2 7 -11 -72 -80 -86 -75 -5
1 -6 -1 -4 -5 3 -5 -72 -69 -167 -144 -267 -213 -345 -271 -358 -263 -6 4 -8
3 -5 -3 7 -11 -56 -61 -283 -222 -85 -61 -161 -108 -167 -106 -7 2 -12 0 -10
-4 3 -13 -82 -73 -94 -66 -5 4 -8 1 -7 -6 2 -6 -3 -14 -11 -17 -9 -3 -11 0 -6
9 5 8 4 11 -1 6 -5 -5 -9 -13 -9 -17 0 -5 -28 -27 -63 -50 -49 -31 -67 -38
-80 -30 -9 5 -12 10 -6 10 5 0 19 7 30 15 17 15 16 15 -12 1 -29 -14 -45 -50
-17 -39 25 10 13 -6 -16 -21 -16 -9 -32 -12 -36 -8 -5 4 -5 2 -2 -5 8 -14 -60
-56 -75 -47 -6 4 -8 2 -4 -4 6 -10 -100 -82 -122 -82 -5 0 -15 -7 -22 -15 -20
-24 -120 -76 -132 -69 -7 4 -8 3 -4 -4 8 -14 -30 -36 -46 -26 -7 4 -8 3 -4 -4
8 -14 -50 -46 -66 -36 -7 4 -8 3 -4 -4 8 -14 -30 -36 -46 -26 -6 4 -8 3 -5 -3
9 -14 -48 -44 -70 -37 -13 4 -14 3 -5 -4 10 -7 -8 -20 -65 -50 -43 -22 -82
-41 -88 -42 -5 -1 -17 -7 -25 -15 -8 -7 -70 -40 -137 -73 -67 -34 -140 -72
-162 -86 -22 -14 -46 -24 -53 -22 -7 1 -10 1 -6 -1 5 -3 3 -13 -2 -23 -23 -43
-1 -45 403 -43 565 3 900 24 1187 74 326 57 742 174 1101 308 72 28 138 47
147 44 12 -3 13 -2 5 4 -8 6 18 21 80 47 51 21 161 72 245 112 124 60 157 72
173 64 13 -8 25 -7 39 0 11 6 24 9 29 6 4 -3 8 1 8 9 0 12 -5 11 -29 -1 -18
-9 -34 -12 -44 -6 -12 7 -1 16 48 42 35 18 109 60 166 92 56 32 108 56 114 52
6 -4 8 -3 5 3 -8 12 170 126 184 118 5 -4 8 -2 7 3 -4 15 110 92 126 86 8 -3
17 -1 21 5 4 7 -1 9 -12 5 -12 -4 -10 0 7 15 27 23 45 28 34 9 -4 -7 -3 -8 5
-4 6 4 9 11 6 16 -7 11 30 32 40 22 3 -4 5 -2 3 4 -4 15 90 86 104 78 6 -4 8
-3 5 3 -8 13 18 37 31 30 4 -3 14 -1 22 5 12 8 11 9 -5 4 -17 -5 -16 -3 5 15
14 11 35 29 48 40 13 11 28 17 34 13 6 -4 8 -3 5 3 -4 6 14 26 39 44 45 34 54
41 152 133 41 39 55 46 66 37 14 -12 46 -5 46 10 0 14 -18 11 -23 -3 -3 -10
-7 -10 -17 -1 -9 9 -3 20 30 50 24 21 46 38 51 38 4 0 11 4 16 9 5 6 2 6 -7 1
-8 -5 18 24 59 63 41 39 79 68 84 65 6 -4 7 -1 2 6 -8 13 33 58 48 53 5 -1 6
1 3 6 -6 10 95 108 107 104 5 -1 6 2 3 6 -6 11 44 68 56 65 4 -2 7 0 7 5 -4
21 3 24 17 6 15 -18 15 -18 5 2 -9 18 -4 28 27 61 20 21 30 30 22 18 -15 -20
-15 -20 7 -1 13 10 20 23 16 28 -3 6 -1 13 4 17 5 3 22 23 37 43 16 21 33 35
39 31 6 -3 7 -1 3 5 -4 7 -2 12 3 12 6 0 10 3 9 8 -4 13 34 62 48 62 7 0 11 6
9 13 -2 6 11 30 31 52 33 39 35 39 49 21 8 -11 15 -16 15 -11 0 5 -7 16 -15
25 -14 15 -12 20 15 46 16 16 30 33 30 37 0 10 52 81 63 85 4 2 7 9 7 15 0 7
17 36 38 66 51 74 61 90 106 162 22 35 44 67 49 70 5 3 8 9 8 13 -3 18 0 18
15 0 15 -18 15 -18 5 3 -9 17 -3 34 31 96 23 42 46 73 50 71 4 -3 5 1 2 9 -3
8 2 20 11 27 8 7 15 20 15 30 0 9 11 29 24 43 13 14 22 28 20 30 -5 4 58 131
75 151 6 7 8 16 4 19 -3 4 0 7 7 7 7 0 11 3 7 6 -3 3 3 23 14 42 10 20 19 42
19 48 0 6 7 17 15 24 9 7 13 15 10 18 -3 3 2 16 10 29 9 13 13 23 10 23 -4 0
1 12 10 28 8 15 24 49 34 76 17 45 19 48 26 26 5 -15 4 -25 -4 -28 -6 -2 -11
-9 -11 -15 0 -6 7 -4 16 5 13 13 15 22 6 46 -8 25 -6 41 12 86 13 31 26 53 29
50 3 -3 3 4 0 17 -4 14 -2 20 4 16 7 -5 9 0 6 13 -3 12 0 20 6 20 7 0 9 5 6
10 -4 6 -2 16 3 23 5 7 28 71 51 142 23 72 45 137 48 145 3 8 7 20 8 25 8 61
19 105 24 105 7 0 31 99 37 145 1 13 9 47 17 77 8 29 20 82 26 118 7 36 16 88
21 115 14 72 28 171 35 240 3 33 10 85 15 115 9 53 13 107 26 320 11 190 5
697 -10 840 -4 36 -11 110 -17 165 -6 55 -17 136 -25 180 -8 44 -15 94 -16
110 -1 17 -4 34 -7 40 -3 5 -4 24 -2 42 1 19 -2 33 -8 33 -6 0 -11 10 -11 23
0 30 -57 301 -75 357 -8 25 -16 54 -18 65 -2 11 -13 50 -25 86 -13 37 -22 70
-21 75 2 9 -4 27 -21 69 -5 11 -16 45 -26 75 -9 30 -20 60 -25 66 -5 6 -10 19
-12 30 -1 10 -5 24 -8 29 -4 6 -16 42 -28 82 -12 40 -26 75 -31 78 -5 3 -7 12
-3 20 3 8 1 15 -4 15 -10 0 -68 135 -68 158 0 7 -6 17 -13 21 -8 5 -13 10 -12
12 1 2 -11 32 -26 66 -28 61 -48 81 -59 63z"/>
<path d="M10936 8427 c-16 -23 -74 -107 -129 -187 -55 -80 -106 -150 -113
-156 -8 -6 -11 -13 -9 -16 3 -3 -2 -11 -12 -19 -15 -12 -16 -12 -11 2 4 10 1
16 -8 16 -17 0 -18 -9 -2 -25 8 -8 -7 -35 -63 -109 -82 -109 -105 -136 -93
-114 5 9 3 12 -5 7 -6 -4 -8 -12 -5 -18 4 -6 2 -13 -3 -17 -5 -3 -19 -21 -32
-39 -18 -26 -26 -31 -33 -20 -8 10 -9 9 -5 -4 3 -9 -4 -27 -16 -41 -12 -14
-57 -68 -101 -121 -43 -52 -83 -93 -88 -90 -4 3 -7 1 -6 -5 5 -15 -133 -172
-145 -164 -5 3 -7 1 -4 -4 4 -6 -8 -26 -26 -45 -17 -19 -74 -80 -126 -136 -53
-58 -98 -99 -105 -95 -6 3 -8 3 -4 -2 11 -11 -12 -36 -25 -28 -5 3 -7 2 -4 -4
8 -13 -67 -86 -78 -76 -4 5 -5 3 -2 -4 6 -10 -31 -48 -290 -290 -31 -29 -60
-50 -66 -46 -5 3 -7 1 -4 -4 8 -13 -17 -36 -27 -25 -4 4 -6 3 -4 -3 2 -8 -60
-71 -112 -113 -20 -16 -59 -50 -102 -89 -20 -17 -55 -46 -79 -65 -25 -18 -60
-48 -80 -66 -63 -57 -142 -112 -152 -105 -6 3 -7 1 -4 -4 7 -12 -26 -46 -36
-38 -4 3 -5 2 -2 -2 3 -3 -12 -18 -33 -32 -20 -14 -64 -47 -96 -73 -33 -26
-66 -48 -73 -48 -7 0 -13 -5 -13 -11 0 -5 -4 -8 -9 -5 -5 3 -11 -1 -14 -8 -9
-23 -108 -85 -126 -79 -12 4 -13 3 -2 -5 16 -12 -3 -27 -21 -16 -6 4 -8 3 -5
-3 8 -13 -50 -56 -65 -47 -6 4 -8 3 -5 -3 8 -13 -220 -166 -235 -157 -6 4 -8
3 -5 -3 3 -5 -20 -25 -51 -43 -31 -19 -64 -39 -72 -46 -8 -7 -33 -22 -55 -35
-70 -39 -79 -44 -134 -80 -30 -18 -58 -33 -63 -32 -4 2 -8 -2 -8 -7 0 -6 -26
-23 -57 -38 -32 -15 -64 -33 -71 -40 -23 -21 -52 -33 -64 -26 -6 4 -8 3 -5 -2
3 -5 -20 -23 -51 -40 -31 -17 -87 -47 -123 -67 -37 -20 -69 -33 -73 -30 -3 4
-6 2 -6 -4 0 -13 -115 -74 -132 -69 -7 1 -9 1 -5 -2 9 -4 -146 -88 -173 -94
-8 -2 -17 -6 -20 -9 -10 -13 -108 -58 -113 -53 -3 3 -15 -4 -26 -15 -12 -12
-27 -21 -34 -21 -7 0 -29 -9 -50 -20 -20 -11 -37 -17 -37 -13 0 5 -4 3 -8 -3
-10 -15 -128 -69 -141 -64 -2 1 -7 -2 -10 -7 -11 -15 -62 -34 -73 -27 -7 4 -8
2 -4 -4 4 -7 2 -12 -3 -12 -6 0 -39 -14 -73 -30 -34 -17 -68 -28 -76 -25 -7 2
-11 1 -8 -4 6 -10 -139 -73 -166 -73 -10 1 -18 -3 -18 -7 0 -5 -80 -43 -100
-47 -3 0 -21 -8 -40 -16 -69 -30 -235 -93 -245 -93 -5 0 -13 -4 -16 -8 -4 -5
-18 -10 -33 -10 -14 -1 -26 -5 -26 -9 0 -5 -8 -8 -18 -8 -10 0 -22 -4 -28 -8
-19 -18 -133 -54 -145 -46 -7 4 -10 3 -6 -3 5 -8 -33 -25 -83 -38 -3 -1 -104
-33 -225 -72 -294 -95 -357 -113 -393 -116 -16 -1 -28 -5 -26 -8 6 -10 -64
-21 -78 -13 -6 4 -8 3 -5 -3 6 -9 -133 -50 -193 -58 -8 -1 -23 -5 -33 -9 -10
-5 -35 -9 -56 -10 -22 0 -37 -4 -35 -8 4 -6 -13 -11 -71 -22 -11 -2 -49 -11
-84 -21 -35 -9 -70 -14 -78 -11 -8 3 -12 2 -9 -3 3 -5 -13 -11 -37 -14 -23 -3
-114 -21 -202 -41 -88 -20 -171 -34 -185 -31 -20 5 -22 3 -10 -6 12 -9 10 -10
-9 -5 -14 3 -30 1 -35 -3 -6 -5 -83 -20 -171 -35 -88 -14 -182 -31 -210 -36
-61 -12 -293 -47 -355 -55 -25 -2 -133 -16 -240 -30 -107 -14 -244 -29 -305
-35 -60 -6 -128 -12 -150 -15 -22 -2 -105 -9 -185 -15 -80 -5 -176 -13 -215
-15 -38 -3 -243 -10 -455 -15 -212 -5 -402 -13 -422 -16 -45 -8 -48 -24 -17
-87 29 -57 149 -258 167 -279 8 -9 11 -22 7 -28 -3 -6 -2 -9 3 -8 15 4 95
-120 86 -133 -4 -7 -3 -9 3 -6 15 9 36 -19 27 -35 -4 -7 -4 -10 1 -6 4 4 17
-4 28 -18 17 -22 18 -28 6 -36 -11 -8 -11 -9 2 -5 21 7 164 -178 161 -208 -1
-14 1 -16 7 -7 6 10 26 -9 69 -63 34 -43 59 -81 56 -86 -3 -5 0 -8 8 -7 7 2
12 -3 10 -10 -1 -8 2 -11 6 -8 5 3 40 -31 78 -76 38 -46 76 -90 84 -98 70 -75
99 -113 94 -122 -4 -6 -2 -8 3 -5 13 8 36 -17 25 -28 -4 -5 -2 -5 5 -2 14 9
85 -72 76 -86 -3 -6 -2 -7 4 -4 5 3 25 -9 43 -28 41 -42 41 -42 255 -14 423
54 888 140 1315 244 129 32 549 148 608 169 24 9 46 15 50 14 4 -1 14 2 22 5
44 19 460 155 460 150 0 -3 6 -1 12 5 24 20 288 113 299 106 7 -4 9 -3 6 3 -6
9 207 99 230 97 7 -1 11 1 8 5 -2 4 13 13 33 20 20 7 65 26 100 42 35 16 65
29 68 29 5 0 30 11 263 119 96 44 179 78 185 74 6 -3 8 -3 4 2 -4 4 77 51 180
103 103 52 260 134 349 184 90 49 167 86 173 83 6 -4 9 -1 8 5 -2 6 53 44 122
83 125 71 201 117 272 164 22 15 42 22 50 17 7 -4 10 -3 5 1 -9 11 134 107
150 100 7 -2 12 -1 10 4 -3 13 253 182 265 175 6 -4 9 -3 5 2 -3 5 58 54 135
109 139 99 166 116 155 99 -3 -5 11 -10 31 -12 19 -1 33 0 30 4 -6 5 -30 11
-52 13 -11 1 14 31 26 31 5 0 6 -6 2 -12 -4 -8 -3 -10 2 -5 5 5 9 12 9 17 0
15 95 81 107 74 6 -4 8 -3 4 4 -7 12 33 44 46 36 5 -3 7 -1 6 4 -4 15 101 92
117 86 7 -3 16 -1 20 5 4 7 -1 8 -12 4 -16 -6 -16 -5 -4 11 8 9 20 15 27 12 8
-3 13 0 11 7 -1 7 4 11 11 9 8 -1 11 2 7 7 -3 6 3 15 13 20 11 6 38 26 61 46
24 19 47 32 52 29 5 -3 8 -1 7 5 -4 15 131 123 144 115 6 -4 8 -3 5 3 -7 12
287 278 306 278 7 0 12 5 12 12 0 19 105 114 117 107 6 -4 8 -3 5 3 -8 13 67
86 78 76 4 -5 5 -3 2 3 -7 12 20 42 38 43 6 1 10 4 10 9 0 16 17 32 27 26 6
-4 8 -3 5 3 -9 14 120 136 134 127 8 -4 9 -3 5 4 -9 15 91 115 106 106 7 -5 8
-3 4 5 -5 8 43 64 137 159 80 81 171 175 202 209 32 35 61 60 65 58 8 -5 25
13 25 27 0 9 6 16 140 168 56 63 112 127 125 142 13 15 27 25 32 22 4 -3 8 0
8 6 0 16 81 130 91 130 5 0 9 4 9 10 0 17 107 149 115 142 5 -4 5 -1 1 6 -5 8
5 30 26 57 18 24 53 75 77 114 25 38 49 67 54 64 6 -3 7 -1 3 5 -8 13 28 75
38 64 4 -4 7 -2 5 3 -4 17 23 65 34 58 6 -3 7 -2 4 4 -6 9 52 133 76 162 6 7
12 20 14 29 1 9 10 22 20 30 10 7 17 16 16 20 -4 13 47 112 58 112 6 0 7 -5 3
-12 -4 -7 -3 -8 5 -4 9 6 9 11 1 21 -12 15 31 100 45 88 4 -5 5 0 2 9 -5 15
17 73 34 88 3 3 13 25 23 50 10 25 23 51 29 59 6 7 12 18 13 25 1 6 13 36 26
66 14 30 31 70 38 88 10 25 15 30 22 20 7 -9 8 -8 4 5 -3 10 -2 25 3 35 15 28
38 84 51 125 6 20 16 37 21 37 5 0 9 9 9 21 0 11 5 30 12 42 7 12 13 30 15 40
2 10 8 28 15 40 7 12 13 27 14 33 1 6 9 27 17 45 21 48 47 129 47 150 0 9 -6
21 -12 27 -10 7 -21 -1 -42 -31z"/>
<path d="M351 8144 c0 -11 3 -14 6 -6 3 7 2 16 -1 19 -3 4 -6 -2 -5 -13z"/>
<path d="M331 8114 c0 -11 3 -14 6 -6 3 7 2 16 -1 19 -3 4 -6 -2 -5 -13z"/>
<path d="M9608 7923 c7 -3 16 -2 19 1 4 3 -2 6 -13 5 -11 0 -14 -3 -6 -6z"/>
<path d="M10118 7423 c7 -3 16 -2 19 1 4 3 -2 6 -13 5 -11 0 -14 -3 -6 -6z"/>
<path d="M635 6970 c-3 -6 1 -7 9 -4 18 7 21 14 7 14 -6 0 -13 -4 -16 -10z"/>
<path d="M9570 6846 c0 -2 9 -6 20 -9 11 -3 18 -1 14 4 -5 9 -34 13 -34 5z"/>
<path d="M8980 6300 c8 -5 20 -10 25 -10 6 0 3 5 -5 10 -8 5 -19 10 -25 10 -5
0 -3 -5 5 -10z"/>
<path d="M11130 6300 c0 -5 5 -10 10 -10 6 0 10 5 10 10 0 6 -4 10 -10 10 -5
0 -10 -4 -10 -10z"/>
<path d="M7685 6240 c3 -5 11 -10 16 -10 6 0 7 5 4 10 -3 6 -11 10 -16 10 -6
0 -7 -4 -4 -10z"/>
<path d="M9747 6159 c7 -7 15 -10 18 -7 3 3 -2 9 -12 12 -14 6 -15 5 -6 -5z"/>
<path d="M7855 5500 c-7 -12 2 -12 30 0 19 8 19 9 -2 9 -12 1 -25 -3 -28 -9z"/>
<path d="M10775 5430 c-3 -5 1 -10 10 -10 9 0 13 5 10 10 -3 6 -8 10 -10 10
-2 0 -7 -4 -10 -10z"/>
<path d="M5938 5293 c7 -3 16 -2 19 1 4 3 -2 6 -13 5 -11 0 -14 -3 -6 -6z"/>
<path d="M8820 5200 c-9 -6 -10 -10 -3 -10 6 0 15 5 18 10 8 12 4 12 -15 0z"/>
<path d="M5330 5050 c0 -5 7 -7 15 -4 8 4 15 8 15 10 0 2 -7 4 -15 4 -8 0 -15
-4 -15 -10z"/>
<path d="M8677 5053 c-10 -10 -8 -23 4 -23 5 0 8 4 5 9 -4 5 0 12 6 14 7 3 8
6 2 6 -6 1 -14 -2 -17 -6z"/>
<path d="M8468 4878 c6 -6 18 -8 28 -6 14 3 12 5 -9 10 -19 3 -25 2 -19 -4z"/>
<path d="M8100 4556 c7 -7 13 -7 20 0 6 6 3 10 -10 10 -13 0 -16 -4 -10 -10z"/>
<path d="M5938 4523 c7 -3 16 -2 19 1 4 3 -2 6 -13 5 -11 0 -14 -3 -6 -6z"/>
<path d="M7890 4420 c-14 -11 -20 -20 -14 -20 6 0 19 9 29 20 23 25 17 25 -15
0z"/>
<path d="M7567 4169 c7 -7 15 -10 18 -7 3 3 -2 9 -12 12 -14 6 -15 5 -6 -5z"/>
<path d="M4525 4050 c-3 -5 -2 -10 4 -10 5 0 13 5 16 10 3 6 2 10 -4 10 -5 0
-13 -4 -16 -10z"/>
<path d="M7261 3956 c-9 -10 -8 -15 2 -19 8 -3 13 3 13 14 0 23 0 23 -15 5z"/>
<path d="M6945 3771 c-3 -5 -2 -12 3 -15 5 -3 9 1 9 9 0 17 -3 19 -12 6z"/>
<path d="M6785 3651 c-3 -5 -2 -12 3 -15 5 -3 9 1 9 9 0 17 -3 19 -12 6z"/>
<path d="M6300 3370 c0 -5 7 -7 15 -4 8 4 15 8 15 10 0 2 -7 4 -15 4 -8 0 -15
-4 -15 -10z"/>
<path d="M6140 3300 c-9 -6 -10 -10 -3 -10 6 0 15 5 18 10 8 12 4 12 -15 0z"/>
<path d="M9284 3259 c-3 -6 -2 -15 3 -20 5 -5 9 -1 9 11 0 23 -2 24 -12 9z"/>
<path d="M5982 3221 c-11 -7 -11 -9 0 -14 9 -3 15 1 15 9 0 8 -1 14 -1 14 -1
0 -7 -4 -14 -9z"/>
<path d="M5810 3136 c0 -2 7 -7 16 -10 8 -3 12 -2 9 4 -6 10 -25 14 -25 6z"/>
<path d="M5680 3060 c8 -5 20 -10 25 -10 6 0 3 5 -5 10 -8 5 -19 10 -25 10 -5
0 -3 -5 5 -10z"/>
<path d="M8975 2929 c-4 -6 -5 -12 -2 -15 2 -3 7 2 10 11 7 17 1 20 -8 4z"/>
<path d="M5325 2900 c3 -6 1 -10 -6 -10 -7 0 -10 -3 -6 -6 3 -3 13 -2 22 4 16
8 16 9 1 15 -10 4 -15 3 -11 -3z"/>
<path d="M8886 2835 c-9 -26 -7 -32 5 -12 6 10 9 21 6 23 -2 3 -7 -2 -11 -11z"/>
<path d="M11020 2811 c0 -6 4 -13 10 -16 6 -3 7 1 4 9 -7 18 -14 21 -14 7z"/>
<path d="M1156 2795 c4 -8 11 -15 16 -15 6 0 5 6 -2 15 -7 8 -14 15 -16 15 -2
0 -1 -7 2 -15z"/>
<path d="M8807 2765 c3 -8 9 -12 14 -9 12 7 11 11 -5 17 -10 4 -13 1 -9 -8z"/>
<path d="M8640 2601 c0 -6 4 -13 10 -16 6 -3 7 1 4 9 -7 18 -14 21 -14 7z"/>
<path d="M8540 2500 c0 -13 11 -13 30 0 12 8 11 10 -7 10 -13 0 -23 -4 -23
-10z"/>
<path d="M1556 2323 c-6 -14 -5 -15 5 -6 7 7 10 15 7 18 -3 3 -9 -2 -12 -12z"/>
<path d="M3398 2243 c7 -3 16 -2 19 1 4 3 -2 6 -13 5 -11 0 -14 -3 -6 -6z"/>
<path d="M10508 2173 c6 -2 9 -10 6 -15 -4 -7 -2 -8 5 -4 13 9 5 26 -12 25 -9
0 -8 -2 1 -6z"/>
<path d="M10442 2104 c-7 -8 -8 -14 -3 -14 10 0 25 19 20 25 -2 1 -10 -3 -17
-11z"/>
<path d="M1810 2040 c0 -5 5 -10 11 -10 5 0 7 5 4 10 -3 6 -8 10 -11 10 -2 0
-4 -4 -4 -10z"/>
<path d="M8010 2026 c7 -7 13 -7 20 0 6 6 3 10 -10 10 -13 0 -16 -4 -10 -10z"/>
<path d="M1831 2021 c-8 -5 -9 -11 -3 -15 5 -3 12 1 16 9 6 17 6 18 -13 6z"/>
<path d="M7839 1893 c-13 -16 -12 -17 4 -4 16 13 21 21 13 21 -2 0 -10 -8 -17
-17z"/>
<path d="M10067 1759 c7 -7 15 -10 18 -7 3 3 -2 9 -12 12 -14 6 -15 5 -6 -5z"/>
<path d="M7525 1661 c-3 -5 -2 -12 3 -15 5 -3 9 1 9 9 0 17 -3 19 -12 6z"/>
<path d="M9749 1548 c-5 -17 -4 -48 3 -48 4 0 7 11 6 25 -2 21 -6 31 -9 23z"/>
<path d="M9654 1444 c-18 -14 -18 -15 4 -4 12 6 22 13 22 15 0 8 -5 6 -26 -11z"/>
<path d="M7125 1380 c-3 -6 1 -7 9 -4 18 7 21 14 7 14 -6 0 -13 -4 -16 -10z"/>
<path d="M9519 1388 c-11 -37 -5 -45 21 -28 13 8 12 10 -3 10 -10 0 -15 5 -12
10 3 6 4 10 1 10 -3 0 -6 -1 -7 -2z"/>
<path d="M9407 1306 c-16 -13 -16 -14 -1 -20 10 -4 22 -2 28 4 8 8 5 9 -9 5
-20 -7 -20 -6 -1 9 24 19 8 21 -17 2z"/>
<path d="M9310 1226 c0 -2 7 -7 16 -10 8 -3 12 -2 9 4 -6 10 -25 14 -25 6z"/>
<path d="M8814 974 c-18 -14 -18 -14 6 -3 31 14 36 19 24 19 -6 0 -19 -7 -30
-16z"/>
<path d="M8663 903 c-21 -8 -15 -23 10 -22 12 0 16 3 9 6 -6 2 -10 9 -6 14 6
10 5 10 -13 2z"/>
<path d="M6323 845 c0 -8 4 -12 9 -9 5 3 6 10 3 15 -9 13 -12 11 -12 -6z"/>
<path d="M6190 786 c0 -2 7 -7 16 -10 8 -3 12 -2 9 4 -6 10 -25 14 -25 6z"/>
<path d="M6014 694 c-18 -14 -18 -14 6 -3 31 14 36 19 24 19 -6 0 -19 -7 -30
-16z"/>
<path d="M5847 609 c7 -7 15 -10 18 -7 3 3 -2 9 -12 12 -14 6 -15 5 -6 -5z"/>
<path d="M5685 541 c-8 -14 30 -32 50 -24 15 5 14 8 -6 19 -29 16 -36 17 -44
5z m35 -11 c8 -5 11 -10 5 -10 -5 0 -17 5 -25 10 -8 5 -10 10 -5 10 6 0 17 -5
25 -10z"/>
</g>
</svg>
